inDegrees=no
num_controls=7
num_derivatives=13
num_iterations=120
num_multipliers=7
num_parameters=0
num_slacks=7
num_states=26
objective=4.693591
objective_accelerations=0.623126
objective_balance=0.079978
objective_effort=0.473762
objective_height=3.432918
objective_ligament=0.083807
solver_duration=1295.834363
status=Solve_Succeeded
success=true
DataType=double
version=3
OpenSimVersion=4.4-2022-07-23-0e9fedc
endheader
time	/jointset/ground_pelvis/pelvis_tilt/value	/jointset/ground_pelvis/pelvis_tx/value	/jointset/ground_pelvis/pelvis_ty/value	/jointset/hip_l/hip_flexion_l/value	/jointset/hip_l/hip_adduction_l/value	/jointset/hip_l/hip_rotation_l/value	/jointset/back/lumbar_extension/value	/jointset/patellofemoral_l/patellar_flexion_l/value	/jointset/knee_l/knee_flexion_l/value	/jointset/knee_l/knee_adduction_l/value	/jointset/knee_l/knee_rotation_l/value	/jointset/ankle_l/ankle_angle_l/value	/jointset/subtalar_l/subtalar_angle_l/value	/jointset/ground_pelvis/pelvis_tilt/speed	/jointset/ground_pelvis/pelvis_tx/speed	/jointset/ground_pelvis/pelvis_ty/speed	/jointset/hip_l/hip_flexion_l/speed	/jointset/hip_l/hip_adduction_l/speed	/jointset/hip_l/hip_rotation_l/speed	/jointset/back/lumbar_extension/speed	/jointset/patellofemoral_l/patellar_flexion_l/speed	/jointset/knee_l/knee_flexion_l/speed	/jointset/knee_l/knee_adduction_l/speed	/jointset/knee_l/knee_rotation_l/speed	/jointset/ankle_l/ankle_angle_l/speed	/jointset/subtalar_l/subtalar_angle_l/speed	/forceset/tau_hip_flexion_l	/forceset/tau_hip_adduction_l	/forceset/tau_hip_rotation_l	/forceset/tau_knee_flexion_l	/forceset/tau_ankle_angle_l	/forceset/tau_subtalar_angle_l	/forceset/tau_lumbar_extension	lambda_cid13_p0	lambda_cid13_p1	lambda_cid13_p2	lambda_cid13_p3	lambda_cid13_p4	lambda_cid13_p5	lambda_cid14_p0	/jointset/ground_pelvis/pelvis_tilt/accel	/jointset/ground_pelvis/pelvis_tx/accel	/jointset/ground_pelvis/pelvis_ty/accel	/jointset/hip_l/hip_flexion_l/accel	/jointset/hip_l/hip_adduction_l/accel	/jointset/hip_l/hip_rotation_l/accel	/jointset/back/lumbar_extension/accel	/jointset/patellofemoral_l/patellar_flexion_l/accel	/jointset/knee_l/knee_flexion_l/accel	/jointset/knee_l/knee_adduction_l/accel	/jointset/knee_l/knee_rotation_l/accel	/jointset/ankle_l/ankle_angle_l/accel	/jointset/subtalar_l/subtalar_angle_l/accel	gamma_cid13_p0	gamma_cid13_p1	gamma_cid13_p2	gamma_cid13_p3	gamma_cid13_p4	gamma_cid13_p5	gamma_cid14_p0
0.5	-0.3205868629160679	-0.03715819454097515	0.6958985828422658	1.384869840340464	-0.2484402230389202	-0.02446531639510454	-0.3637115594227561	1.136327467145887	1.13632746714539	0.02474346327623097	0.1745325088093305	0.2848964022953485	0.07868465355803411	-0.2879763518706389	-0.09841091423544407	-0.806242917072496	2.567563860137518	0.05885370948158699	0.3993323528212161	-0.576207029682872	2.884149336366082	2.884149336366139	0.4843049955816324	2.199063634134725e-05	0.754496196889355	0.2879424037365151	-0.207461753050814	-0.001364072089474522	-0.01029343868929774	-0.3213872720586389	0.09453244392168236	0.03026373497526086	0.210215454819372	-7.095758748007025	-10.46701410819988	-0.3717892571447551	-6.785001025842242	-610.2953641400989	-66.67947897441699	-2.357173343914542	1.32397973436885	1.01005889737856	-0.5029886661209322	-2.396570815311861	-0.2111312002806537	-1.045785835304326	2.487517015929983	-2.48215836483428	-2.482158364834332	-0.4547644658113551	-0.09940184142895059	-1.66462897078035	-0.3529911864018442	2.156476199968919e-07	-5.805153328038596e-06	-3.855698543091365e-06	-9.573040854172514e-07	-3.119704225042487e-07	-4.614422756338411e-06	-6.662302795965874e-08
0.51	-0.3233998418256925	-0.03809191439276496	0.6878131163755377	1.410422309344893	-0.2478634663191003	-0.02052989454269163	-0.3693491800091324	1.165040304768949	1.165040304768647	0.02956667460013149	0.1745325396536723	0.2923562088634253	0.08154399237743452	-0.2745617864390613	-0.08833962740881351	-0.8106438591979724	2.542616307804137	0.05647587184529874	0.3877812337376324	-0.5512918927207193	2.858044762266016	2.858044762265995	0.4803112321819284	-1.228817480514135e-05	0.7373436291183667	0.2838305408012361	-0.213890671251415	-0.000993600803102326	-0.01095146268192706	-0.3280937708077725	0.09275810351108925	0.03051212167547966	0.2159413935703256	-8.130118863743331	-10.19375077156047	-0.643832907482545	-6.169131645810371	-618.0956113388409	-67.02325793320732	-1.47088586077258	1.358854089478977	1.004489543226387	-0.3777300334619546	-2.590876278531016	-0.253564068169861	-1.205561214237935	2.497291267138344	-2.730613625155781	-2.7306136251674	-0.3763180560732335	0.04600018992306498	-1.7590070120426	-0.4531569470721499	2.457230825535408e-07	-5.404317981017219e-06	-3.875959911215411e-06	-9.242646866078098e-07	-2.933488526661661e-07	-4.614841040076274e-06	-1.60731572310712e-08
0.52	-0.3260769432526156	-0.03892515618270428	0.6796898238780147	1.435715897058751	-0.247310978780217	-0.01670914113498314	-0.374736893379731	1.193480895312497	1.193480895312388	0.03434902113422843	0.1745325159280841	0.2996408024874355	0.08435963794748591	-0.2608008553304137	-0.07831530186534431	-0.8138081232314921	2.515787602023562	0.05399987329433142	0.3763986638799473	-0.5262255865273493	2.82969992046343	2.829699920463332	0.4761320376212924	1.107664927100197e-05	0.7194536080759973	0.279203753866709	-0.220319589452016	-0.000623129516724489	-0.01160948667456969	-0.3348002695569063	0.09098376310049787	0.03076050837570686	0.2216673323212791	-9.150843052522923	-9.936838399960335	-0.8973260044890824	-5.66568484073114	-625.7241952146825	-67.3881323669676	-0.8091569914960239	1.393252869782834	1.000666640746277	-0.2556530477295589	-2.77280150475084	-0.230763383216468	-1.012075990124601	2.517750862173445	-2.930211905338183	-2.930211905338114	-0.4918506979977698	-0.08787311438443032	-1.81211962505655	-0.4559759862514712	2.682770136666153e-07	-4.997075019978089e-06	-3.807264398196086e-06	-8.890472124670847e-07	-2.737589953632365e-07	-4.574256949139489e-06	2.423238851257296e-08
0.53	-0.3286149432008317	-0.03965850253104743	0.6715410684775798	1.460732159017401	-0.2467835394756126	-0.0130009364586967	-0.3798733276262513	1.221627148154219	1.221627148153701	0.03908871096958307	0.1745323952725008	0.3067430511863374	0.08712667029872781	-0.2467582883559625	-0.06837156217084209	-0.8157342432948912	2.487167630069004	0.05147080616223144	0.3652594460646556	-0.501059138942914	2.799194255447063	2.799194255446927	0.4717830223700465	-2.135619716799351e-05	0.7008912517351585	0.2741110250332904	-0.2263810860693649	-0.0003034736447984069	-0.01243100810767067	-0.3419206076864733	0.08919464675341542	0.03086817279725625	0.2270393104603072	-10.19859112163225	-9.607597326352112	-1.169747907855739	-4.974450383291544	-633.4111916396895	-67.64122483357207	-0.3591206173836199	1.415905680791442	0.9884143688180917	-0.1298371454367484	-2.951145346683304	-0.2658368405966691	-1.16236144255345	2.51641028167796	-3.164211745449659	-3.164211745455375	-0.4104297696150522	0.04204669345104198	-1.894201208834634	-0.5484726448198307	2.751901536872436e-07	-4.357051039162818e-06	-3.503472544529857e-06	-8.189261619177393e-07	-2.387986096276909e-07	-4.25390682083374e-06	5.38500838463338e-08
0.54	-0.3310112880653997	-0.0402929741354424	0.6633793027445526	1.48545331119533	-0.2462817625348072	-0.009403627313628154	-0.3847580336819073	1.249457650756644	1.249457650755716	0.04378411008624539	0.1745325453010926	0.3136564948077834	0.08984026509904897	-0.2324698386009043	-0.05854035307570737	-0.8164101897499623	2.456765645879442	0.04886740053453623	0.3542195576364833	-0.4758799483545036	2.766549872604147	2.766549872603973	0.4672738938817185	6.521348538014394e-05	0.6816925925848363	0.2685162436825609	-0.232442582686716	1.618222712496714e-05	-0.013252529540743	-0.3490409458160392	0.08740553040633268	0.03097583721880193	0.2324112885993334	-11.23640259740543	-9.29071864837228	-1.428070774907043	-4.382565931149191	-640.9768401919426	-67.90700388249502	-0.1083002266045679	1.442429425904252	0.9781605208727651	-0.005618326063989734	-3.129203951751766	-0.2456310823355081	-0.9922101127007041	2.52029946296844	-3.357955470648009	-3.357955470648055	-0.5238733454142024	-0.06407260858700418	-1.939380186953252	-0.5563864897136862	2.647985886694205e-07	-3.459482100297347e-06	-2.939574101211732e-06	-7.101883885333237e-07	-1.868325328603148e-07	-3.624028310758073e-06	7.16429234074576e-08
0.55	-0.3332636928859031	-0.04082977274817145	0.6552169506175499	1.509861932090381	-0.2458059984869552	-0.005914396043613959	-0.3893909908555773	1.276951639537478	1.276951639537061	0.04843271952248066	0.1745326350208913	0.320375210751172	0.09249598087926522	-0.2179857584480546	-0.04884698191397811	-0.8158531271391182	2.424677914336961	0.04627423213016586	0.3436430829601693	-0.4507316220321499	2.731914290584511	2.731914290584487	0.4624188656130053	-2.802588223689158e-05	0.6619665299264411	0.2625438083337872	-0.2380694861636209	0.0002661003261401368	-0.01421636963075316	-0.3563725954923997	0.08559069801614327	0.03099204391092948	0.2373690984148441	-12.28467359015372	-8.92875475777814	-1.697613290292769	-3.652842485742713	-648.3549969555537	-68.08332460255353	-0.04216211109358246	1.455219178069371	0.9606533718415425	0.1174031338932645	-3.290630488682762	-0.2673718448368982	-1.087927897147289	2.509078869007045	-3.566414783968086	-3.566414783945494	-0.4709948373220055	0.02157501463117706	-2.001927892192857	-0.6293580226685374	2.574945594594064e-07	-2.755414470546588e-06	-2.495836223241787e-06	-6.268138644177275e-07	-1.452227869028584e-07	-3.133101408013579e-06	8.555661189999638e-08
0.5600000000000001	-0.3353704925312584	-0.04127049205767951	0.6470663760325024	1.53394126112337	-0.2453564085482167	-0.002530441870771572	-0.3937730688355962	1.304089261454847	1.304089261454941	0.05303184322208071	0.1745324972701187	0.3268941243505948	0.09508963511295189	-0.2033488035714442	-0.03932449243151152	-0.8140546813588945	2.390907273467018	0.04363257871183047	0.3331641382018339	-0.4257041096242678	2.695276499911006	2.695276499911133	0.4573767465554078	1.971936935549362e-05	0.6417321237916379	0.2561039343766411	-0.2436963896405279	0.0005160184251603186	-0.01518020972078021	-0.3637042451687606	0.08377586562595572	0.0310082506030649	0.2423269082303526	-13.3359447561808	-8.567816654907027	-1.965224230626488	-2.964922765957531	-655.7777273136244	-68.27361611719006	-0.04221156183364952	1.473004370656396	0.9439841850202227	0.2426583078118882	-3.465785817244008	-0.2553280851285116	-0.9727041291049833	2.496136680074143	-3.758397201421861	-3.758397201421888	-0.561291503191115	-0.0358756847451201	-2.041048882234836	-0.6498742113881727	2.538955732187629e-07	-2.283548411733477e-06	-2.196291023689653e-06	-5.738752394247134e-07	-1.160406379173052e-07	-2.808916434066486e-06	9.481531911023328e-08
0.5700000000000001	-0.3373303443640756	-0.04161691106347282	0.6389399147707798	1.557674779159924	-0.2449331759998195	0.0007503315407125434	-0.3979056218045066	1.330850975578567	1.330850975578594	0.05757908294020341	0.1745325410304069	0.3332085382015388	0.09761702563816947	-0.1886138827137843	-0.02999534646981206	-0.8110345129395621	2.355531944009313	0.0410146021633093	0.3230229888165954	-0.4008480246222168	2.656756819870007	2.656756819870104	0.4520318272797657	-7.470128977160383e-06	0.6210923074529685	0.249311528028568	-0.2487754531352819	0.00070378217542888	-0.01623594857733091	-0.3709519965835501	0.08206441339528056	0.03096533378308393	0.2467842518036117	-14.33714486555628	-8.180958981932285	-2.247254960773535	-2.235683967639323	-662.7834742094227	-68.39512202031591	-0.04219978139168133	1.474902981404239	0.9218653542864336	0.3621349091845664	-3.613046654201455	-0.2645990561019587	-1.029932353128686	2.474113340644292	-3.945199160391517	-3.94519916039607	-0.5271684283205731	0.01488339292383187	-2.084255981484566	-0.7027636973151067	2.549360242864905e-07	-1.958165700701796e-06	-2.012191714701603e-06	-5.383314585619082e-07	-9.740710147404928e-08	-2.631569240062608e-06	1.060407326456627e-07
0.58	-0.3391426135806987	-0.04187114149914084	0.6308497429532888	1.581046615873068	-0.244536036540185	0.003930671056367015	-0.4017908601373217	1.357218203750886	1.357218203750846	0.0620716582078473	0.1745325176907732	0.3393147922947358	0.1000747241297467	-0.173832280332788	-0.02088677840645181	-0.8067967925126106	2.318571008784903	0.03841396095926469	0.3130773590355418	-0.3762411824052185	2.616379309630905	2.616379309630971	0.4464438564613326	6.299384737097976e-06	0.6001001722422372	0.2421655276485666	-0.2538545166300379	0.0008915459257048547	-0.0172916874339145	-0.3781997479983407	0.0803529611646078	0.03092241696311469	0.251241595376869	-15.34928570455907	-7.789929978882771	-2.532530154633409	-1.513066274647406	-669.9348017401564	-68.53412435260468	-0.0421178510977604	1.482340675323687	0.8998686053523695	0.4861687093357256	-3.782906970584705	-0.2518610162332054	-0.9336002082679731	2.446288123063615	-4.129963241042506	-4.129963241042502	-0.6099018117493328	-0.02768388233573863	-2.111512656647196	-0.7205930177738445	2.620185332441894e-07	-1.823552000734299e-06	-1.978440542262121e-06	-5.254414281942582e-07	-9.251129299285449e-08	-2.645452643194073e-06	1.198274381394821e-07
0.59	-0.340807049826429	-0.04203546680726933	0.6228079626045799	1.604041161423178	-0.2441646910886086	0.007012688864366596	-0.405431440538319	1.383172658785106	1.38317265878508	0.06650714367022897	0.1745325295153342	0.3452096399378939	0.1024594209349932	-0.1590667601981475	-0.01202215551786979	-0.8013625284281344	2.280090112252308	0.03586166412487488	0.3033581686573575	-0.351936145727957	2.574223996856512	2.574223996856597	0.4406112084432192	-3.536047676735299e-06	0.5788357363215763	0.234725266219216	-0.2583235662605873	0.001038651035862009	-0.01843585225100152	-0.3852523757440581	0.07876862115436528	0.03081551477043736	0.2551471721285951	-16.29441371619163	-7.373902157707386	-2.832003561723188	-0.77792536385565	-676.5296307291744	-68.58264083377833	-0.04197127001633418	1.471907154965059	0.8730747078482417	0.6015496495392096	-3.917857924943859	-0.2556288338534159	-0.9862352062090659	2.413424250034793	-4.301495930016535	-4.301495930013696	-0.5763614037031795	0.01291613239058552	-2.138995479598172	-0.7625226449599076	2.656560062762035e-07	-1.690461356099286e-06	-1.926395200693718e-06	-5.094020428973163e-07	-8.854840147621365e-08	-2.640389248857161e-06	1.307337091334159e-07
